<?xml version="1.0" standalone="no"?>
<!DOCTYPE svg PUBLIC "-//W3C//DTD SVG 20010904//EN"
 "http://www.w3.org/TR/2001/REC-SVG-20010904/DTD/svg10.dtd">
<svg version="1.0" xmlns="http://www.w3.org/2000/svg"
 width="260.000000pt" height="260.000000pt" viewBox="0 0 260.000000 260.000000"
 preserveAspectRatio="xMidYMid meet">
<metadata>
Created by potrace 1.14, written by Peter Selinger 2001-2017
</metadata>
<g transform="translate(0.000000,260.000000) scale(0.100000,-0.100000)"
fill="#000000" stroke="none">
<path d="M223 2445 c0 -22 2 -30 4 -17 2 12 2 30 0 40 -3 9 -5 -1 -4 -23z"/>
<path d="M2032 2460 c0 -14 2 -19 5 -12 2 6 2 18 0 25 -3 6 -5 1 -5 -13z"/>
<path d="M1988 2423 c6 -2 18 -2 25 0 6 3 1 5 -13 5 -14 0 -19 -2 -12 -5z"/>
<path d="M2058 2423 c6 -2 18 -2 25 0 6 3 1 5 -13 5 -14 0 -19 -2 -12 -5z"/>
<path d="M2032 2390 c0 -14 2 -19 5 -12 2 6 2 18 0 25 -3 6 -5 1 -5 -13z"/>
<path d="M2330 2390 c-6 -11 -17 -20 -24 -20 -21 0 -46 -34 -46 -63 0 -27 34
-67 57 -67 9 0 13 -16 13 -51 l0 -51 -32 2 c-50 3 -55 1 -34 -15 11 -8 30 -15
42 -15 16 0 24 -7 26 -22 4 -28 22 -30 26 -3 1 11 19 29 40 40 49 27 56 72 16
104 -15 11 -33 21 -40 21 -10 0 -14 15 -14 51 l0 51 36 -7 c46 -8 43 15 -4 27
-18 5 -32 15 -32 23 0 21 -17 18 -30 -5z m0 -80 c0 -41 -7 -49 -28 -28 -21 21
-7 68 20 68 4 0 8 -18 8 -40z m61 -100 c21 -12 25 -40 7 -58 -24 -24 -38 -13
-38 28 0 43 2 45 31 30z"/>
<path d="M135 2390 c-4 -6 8 -10 29 -10 20 0 36 5 36 10 0 6 -13 10 -29 10
-17 0 -33 -4 -36 -10z"/>
<path d="M250 2390 c0 -5 14 -10 30 -10 17 0 30 5 30 10 0 6 -13 10 -30 10
-16 0 -30 -4 -30 -10z"/>
<path d="M222 2330 c0 -19 2 -27 5 -17 2 9 2 25 0 35 -3 9 -5 1 -5 -18z"/>
<path d="M716 2304 c-14 -14 -16 -126 -16 -1090 0 -722 3 -1082 10 -1095 10
-18 27 -19 575 -19 548 0 565 1 575 19 6 13 10 224 10 614 l0 595 58 6 c31 4
79 9 105 12 l49 6 -7 46 c-18 124 -97 326 -175 454 l-30 48 0 194 c0 164 -3
197 -16 210 -14 14 -79 16 -569 16 -490 0 -555 -2 -569 -16z m409 -44 c3 -6
-1 -13 -10 -16 -19 -8 -30 0 -20 15 8 14 22 14 30 1z m295 -5 c0 -13 -22 -15
-140 -15 -128 0 -152 4 -133 23 3 4 66 7 140 7 112 0 133 -2 133 -15z m55 5
c3 -6 -1 -13 -10 -16 -19 -8 -30 0 -20 15 8 14 22 14 30 1z m355 -195 l0 -106
-61 66 c-34 36 -65 65 -69 65 -4 0 -104 -120 -222 -268 -211 -264 -215 -268
-297 -315 -94 -55 -121 -90 -121 -157 0 -74 45 -130 116 -145 25 -5 33 -13 38
-36 7 -37 20 -36 76 1 30 20 58 30 82 30 43 0 53 12 49 57 -2 30 0 33 26 34
15 0 106 8 201 17 95 10 175 16 177 13 3 -2 5 -224 5 -493 l0 -488 -550 0
-550 0 0 915 0 915 550 0 550 0 0 -105z m-410 -1845 l0 -40 -134 0 c-126 0
-135 1 -141 20 -3 11 -3 29 0 40 6 19 15 20 141 20 l134 0 0 -40z"/>
<path d="M1335 1077 c-27 -27 -34 -43 -40 -94 -9 -78 -39 -115 -118 -147 l-59
-24 49 -18 c34 -14 67 -18 113 -16 126 7 146 7 203 -1 53 -7 59 -5 80 17 13
14 32 41 42 60 16 29 17 37 5 51 -9 11 -16 13 -24 5 -5 -5 -18 -10 -28 -10 -9
0 -33 -7 -52 -17 -29 -13 -38 -14 -51 -3 -23 19 -19 24 35 54 66 36 75 51 24
41 -107 -23 -137 3 -62 52 l43 28 -35 5 c-24 3 -38 12 -45 28 -14 31 -41 28
-80 -11z"/>
<path d="M270 2182 c-192 -63 -200 -66 -200 -89 0 -36 82 -274 96 -280 8 -3
49 4 90 17 l76 22 27 -26 c15 -14 30 -26 33 -26 4 0 9 18 13 39 7 40 7 40 81
62 46 14 79 29 85 41 7 13 -1 50 -31 145 -43 134 -53 153 -79 152 -9 0 -95
-26 -191 -57z m151 -51 c36 -29 31 -87 -14 -159 -19 -31 -42 -58 -51 -60 -24
-5 -135 49 -157 76 -42 54 -3 126 66 121 17 -2 45 7 65 19 43 27 61 27 91 3z"/>
<path d="M1958 2084 c-68 -75 -76 -88 -59 -99 10 -6 144 138 149 161 8 32 -27
9 -90 -62z"/>
<path d="M2170 1861 c-93 -43 -146 -73 -148 -84 -2 -9 -1 -17 2 -17 10 0 291
131 301 141 6 6 6 12 0 18 -6 5 -67 -17 -155 -58z"/>
<path d="M2412 1795 c0 -16 2 -22 5 -12 2 9 2 23 0 30 -3 6 -5 -1 -5 -18z"/>
<path d="M2368 1753 c6 -2 18 -2 25 0 6 3 1 5 -13 5 -14 0 -19 -2 -12 -5z"/>
<path d="M2438 1753 c6 -2 18 -2 25 0 6 3 1 5 -13 5 -14 0 -19 -2 -12 -5z"/>
<path d="M2412 1720 c0 -14 2 -19 5 -12 2 6 2 18 0 25 -3 6 -5 1 -5 -13z"/>
<path d="M44 1579 c-3 -6 -1 -16 5 -22 8 -8 11 -5 11 11 0 24 -5 28 -16 11z"/>
<path d="M390 1530 c0 -11 -6 -20 -14 -20 -7 0 -25 -10 -40 -21 -40 -31 -33
-76 17 -108 33 -22 37 -28 37 -68 l0 -44 -40 3 c-52 4 -52 -15 -1 -26 30 -6
41 -14 41 -27 0 -11 5 -19 10 -19 6 0 10 9 10 19 0 12 14 26 38 38 34 16 37
22 37 58 0 36 -3 42 -37 58 -36 17 -38 22 -38 64 0 44 0 44 32 41 45 -4 48 19
4 28 -26 4 -36 11 -36 25 0 11 -4 19 -10 19 -5 0 -10 -9 -10 -20z m0 -90 c0
-43 -2 -45 -31 -30 -21 12 -25 40 -7 58 24 24 38 13 38 -28z m69 -126 c3 -16
-22 -44 -41 -44 -4 0 -8 21 -8 46 0 46 0 46 23 32 12 -9 24 -24 26 -34z"/>
<path d="M8 1533 c7 -3 16 -2 19 1 4 3 -2 6 -13 5 -11 0 -14 -3 -6 -6z"/>
<path d="M78 1533 c6 -2 18 -2 25 0 6 3 1 5 -13 5 -14 0 -19 -2 -12 -5z"/>
<path d="M2562 1500 c0 -14 2 -19 5 -12 2 6 2 18 0 25 -3 6 -5 1 -5 -13z"/>
<path d="M52 1490 c0 -14 2 -19 5 -12 2 6 2 18 0 25 -3 6 -5 1 -5 -13z"/>
<path d="M2117 1494 c-19 -20 2 -24 93 -22 58 2 100 7 100 13 0 11 -182 20
-193 9z"/>
<path d="M2515 1460 c-3 -5 3 -10 14 -10 12 0 21 5 21 10 0 6 -6 10 -14 10 -8
0 -18 -4 -21 -10z"/>
<path d="M2562 1420 c0 -14 2 -19 5 -12 2 6 2 18 0 25 -3 6 -5 1 -5 -13z"/>
<path d="M100 1205 c0 -19 5 -35 10 -35 6 0 10 16 10 35 0 19 -4 35 -10 35 -5
0 -10 -16 -10 -35z"/>
<path d="M2340 1195 c0 -22 4 -34 10 -30 6 3 10 17 10 30 0 13 -4 27 -10 30
-6 4 -10 -8 -10 -30z"/>
<path d="M25 1150 c-4 -6 8 -10 30 -10 22 0 34 4 30 10 -3 6 -17 10 -30 10
-13 0 -27 -4 -30 -10z"/>
<path d="M135 1150 c-4 -6 8 -10 30 -10 22 0 34 4 30 10 -3 6 -17 10 -30 10
-13 0 -27 -4 -30 -10z"/>
<path d="M2260 1140 c0 -5 14 -10 30 -10 17 0 30 5 30 10 0 6 -13 10 -30 10
-16 0 -30 -4 -30 -10z"/>
<path d="M2370 1140 c0 -5 13 -10 29 -10 17 0 33 5 36 10 4 6 -8 10 -29 10
-20 0 -36 -4 -36 -10z"/>
<path d="M100 1090 c0 -16 5 -30 10 -30 6 0 10 14 10 30 0 17 -4 30 -10 30 -5
0 -10 -13 -10 -30z"/>
<path d="M2340 1085 c0 -22 4 -34 10 -30 6 3 10 17 10 30 0 13 -4 27 -10 30
-6 4 -10 -8 -10 -30z"/>
<path d="M2101 918 c-25 -68 -73 -258 -68 -271 3 -9 41 -26 83 -39 74 -22 78
-25 87 -58 5 -19 11 -37 13 -39 2 -3 17 8 33 23 l29 28 67 -21 c74 -23 84 -24
103 -13 14 9 82 237 82 276 0 28 0 28 -234 96 -162 47 -183 49 -195 18z m181
-87 c15 -13 33 -18 46 -14 31 8 82 -16 93 -44 11 -31 -2 -64 -40 -95 -36 -31
-114 -63 -135 -55 -8 3 -29 27 -46 53 -41 58 -51 125 -25 154 23 26 75 26 107
1z"/>
<path d="M209 917 c-87 -33 -145 -105 -155 -193 -18 -145 91 -264 241 -264 43
0 69 -6 90 -20 17 -11 33 -20 38 -20 4 0 7 19 7 43 0 33 6 49 24 66 71 67 85
199 30 287 -56 91 -180 136 -275 101z m99 -49 c7 -7 12 -31 12 -55 l0 -43 48
0 c26 0 52 -4 58 -8 10 -6 13 -76 4 -92 -1 -3 -3 -9 -4 -15 -1 -5 -6 -19 -10
-30 -4 -11 -10 -26 -12 -32 -4 -16 -165 -18 -180 -3 -8 8 -15 6 -24 -5 -7 -8
-20 -15 -30 -15 -31 0 -41 25 -38 92 l3 63 33 3 c18 2 32 -1 32 -7 0 -24 18
-8 43 38 15 27 27 65 27 85 0 37 15 47 38 24z"/>
<path d="M2525 407 c-4 -10 -5 -21 -1 -24 10 -10 18 4 13 24 -4 17 -4 17 -12
0z"/>
<path d="M2 380 c0 -14 2 -19 5 -12 2 6 2 18 0 25 -3 6 -5 1 -5 -13z"/>
<path d="M2478 363 c6 -2 18 -2 25 0 6 3 1 5 -13 5 -14 0 -19 -2 -12 -5z"/>
<path d="M2558 363 c6 -2 18 -2 25 0 6 3 1 5 -13 5 -14 0 -19 -2 -12 -5z"/>
<path d="M28 343 c6 -2 18 -2 25 0 6 3 1 5 -13 5 -14 0 -19 -2 -12 -5z"/>
<path d="M2520 325 c0 -8 5 -15 10 -15 6 0 10 7 10 15 0 8 -4 15 -10 15 -5 0
-10 -7 -10 -15z"/>
<path d="M2 310 c0 -14 2 -19 5 -12 2 6 2 18 0 25 -3 6 -5 1 -5 -13z"/>
<path d="M485 270 c-3 -11 -2 -28 4 -37 8 -15 10 -11 11 20 0 41 -5 47 -15 17z"/>
<path d="M2177 243 c-11 -10 -8 -51 3 -58 6 -4 10 8 10 29 0 37 -2 41 -13 29z"/>
<path d="M405 200 c-4 -6 8 -10 30 -10 22 0 34 4 30 10 -3 6 -17 10 -30 10
-13 0 -27 -4 -30 -10z"/>
<path d="M520 200 c0 -5 14 -10 30 -10 17 0 30 5 30 10 0 6 -13 10 -30 10 -16
0 -30 -4 -30 -10z"/>
<path d="M485 149 c-4 -12 -2 -26 4 -32 8 -8 11 -2 11 21 0 37 -6 41 -15 11z"/>
<path d="M2090 160 c0 -5 16 -10 35 -10 19 0 35 5 35 10 0 6 -16 10 -35 10
-19 0 -35 -4 -35 -10z"/>
<path d="M2210 160 c0 -5 14 -10 30 -10 17 0 30 5 30 10 0 6 -13 10 -30 10
-16 0 -30 -4 -30 -10z"/>
<path d="M2177 133 c-11 -10 -8 -51 3 -58 6 -4 10 8 10 29 0 37 -2 41 -13 29z"/>
</g>
</svg>
