<?xml version="1.0" standalone="no"?>
<!DOCTYPE svg PUBLIC "-//W3C//DTD SVG 20010904//EN"
 "http://www.w3.org/TR/2001/REC-SVG-20010904/DTD/svg10.dtd">
<svg version="1.0" xmlns="http://www.w3.org/2000/svg"
 width="640.000000pt" height="640.000000pt" viewBox="0 0 640.000000 640.000000"
 preserveAspectRatio="xMidYMid meet">
<metadata>
Created by potrace 1.14, written by Peter Selinger 2001-2017
</metadata>
<g transform="translate(0.000000,640.000000) scale(0.100000,-0.100000)"
fill="#000000" stroke="none">
<path d="M3030 5939 c-245 -27 -413 -69 -545 -138 -81 -42 -160 -114 -171
-155 -33 -133 254 -248 717 -285 175 -14 667 -15 795 -1 240 27 431 94 481
169 79 118 -42 240 -332 335 -182 59 -321 78 -610 81 -137 2 -288 -1 -335 -6z
m525 -94 c255 -16 545 -106 634 -199 49 -51 40 -75 -46 -113 -147 -66 -318
-87 -693 -87 -415 0 -672 26 -865 89 -84 28 -155 68 -155 89 0 23 70 78 145
112 136 63 327 100 580 113 147 8 197 8 400 -4z"/>
<path d="M2984 5750 c-67 -10 -139 -23 -160 -29 -21 -6 -58 -9 -82 -9 -76 4
-98 -59 -29 -81 86 -28 431 -61 632 -61 125 0 423 21 515 36 80 13 110 37 90
73 -7 14 -26 20 -77 24 -37 3 -126 18 -198 32 -180 37 -508 44 -691 15z m426
-80 c16 -5 -10 -8 -75 -9 -55 0 -107 4 -115 9 -19 12 153 12 190 0z"/>
<path d="M2903 5307 c-82 -46 -119 -194 -73 -296 11 -24 19 -45 17 -47 -1 -2
-60 -21 -131 -42 l-128 -40 -63 48 c-87 66 -174 113 -302 165 -206 82 -483
153 -686 174 -132 15 -343 7 -401 -14 -94 -34 -162 -127 -203 -275 -15 -54
-18 -105 -17 -310 1 -260 9 -350 50 -575 37 -201 125 -489 184 -605 l20 -39
-21 -53 c-63 -156 -138 -447 -154 -598 -11 -100 -8 -95 -65 -91 -160 11 -240
-58 -180 -156 10 -18 39 -45 62 -60 24 -15 45 -28 47 -30 2 -1 -6 -14 -18 -29
-26 -33 -27 -88 -2 -134 23 -44 55 -68 121 -89 l52 -17 33 -105 c43 -140 92
-244 173 -362 37 -55 75 -114 85 -131 90 -153 402 -340 762 -456 39 -12 73
-26 78 -29 4 -4 10 -34 13 -67 3 -32 11 -87 19 -122 l13 -63 -43 -64 c-103
-152 -269 -482 -281 -556 -5 -32 -11 -38 -48 -49 -83 -24 -136 -87 -136 -160
0 -29 2 -30 45 -30 40 0 45 2 45 23 0 38 28 66 82 82 28 8 55 15 58 15 4 0 28
-27 54 -60 l47 -60 185 0 184 0 0 74 c0 44 -4 76 -11 78 -7 2 -6 13 2 33 l13
30 4 -27 3 -28 96 0 96 0 -5 -80 -5 -80 434 0 433 0 0 74 c0 74 0 75 -27 78
l-28 3 0 135 0 135 28 3 27 3 0 136 c0 130 -1 135 -20 130 -18 -5 -20 0 -19
41 1 81 25 222 40 237 10 10 184 45 225 45 1 0 4 -11 6 -25 l5 -25 -113 0
-114 0 0 -135 0 -135 130 0 130 0 1 28 1 27 7 -25 c4 -14 4 -26 -1 -28 -4 -2
-8 -64 -8 -138 l0 -134 60 0 c70 0 65 6 108 -140 17 -58 34 -113 37 -123 7
-15 -2 -17 -99 -17 l-106 0 0 -75 0 -75 179 0 180 0 -15 52 c-9 28 -20 61 -24
74 -5 12 -6 25 -3 28 4 3 53 6 109 6 l103 0 3 78 3 77 38 -68 c21 -38 36 -75
33 -83 -3 -8 -19 -14 -40 -14 -34 0 -35 -1 -30 -29 5 -24 -1 -37 -36 -75 l-43
-46 71 0 70 0 54 59 c41 45 62 60 91 65 l37 7 0 -66 0 -65 55 0 55 0 0 65 c0
62 1 65 28 71 179 40 303 87 402 154 226 153 334 373 316 645 -10 158 -69 284
-169 356 -76 55 -189 30 -222 -48 -20 -48 -19 -96 6 -216 26 -127 22 -229 -11
-305 -23 -54 -105 -138 -163 -168 -35 -19 -141 -59 -177 -67 l-25 -6 3 255 3
254 -25 25 c-24 24 -32 25 -138 26 -175 2 -323 8 -320 14 1 3 2 13 2 23 0 13
23 23 108 45 295 79 642 252 752 375 44 49 62 73 186 234 33 44 84 124 113
180 47 88 56 99 75 93 11 -3 53 -9 92 -12 54 -4 78 -2 102 11 56 29 79 108 48
167 -13 26 -13 26 38 38 69 15 110 42 141 90 31 50 32 91 2 119 -43 40 -89 52
-209 52 l-114 0 8 103 c13 165 -21 496 -63 624 -10 31 -7 39 41 117 94 153
175 366 240 630 69 280 84 398 84 666 1 248 -7 308 -54 401 -46 89 -148 143
-320 170 -106 16 -376 6 -525 -21 -242 -43 -570 -151 -785 -260 -45 -23 -65
-28 -79 -21 -72 39 -378 110 -541 125 -30 3 -56 5 -57 6 -2 0 -3 10 -3 23 0
46 -30 123 -58 150 -53 51 -131 52 -170 2 l-20 -25 -22 42 c-12 24 -38 60 -58
81 -32 33 -41 37 -87 37 -27 -1 -60 -6 -72 -13z m94 -89 c40 -45 66 -105 93
-211 15 -60 34 -116 43 -124 14 -15 18 -15 40 0 22 14 25 24 29 104 7 131 36
176 75 116 13 -20 18 -50 19 -121 2 -97 8 -112 46 -112 10 0 23 9 30 20 16 25
65 26 198 5 175 -29 391 -94 511 -155 54 -28 87 -26 101 6 11 24 10 29 -20 54
l-33 27 38 16 c21 9 72 30 113 47 198 83 439 153 627 184 209 34 474 28 587
-14 119 -45 150 -101 168 -301 25 -284 -37 -693 -163 -1064 -41 -120 -137
-326 -155 -332 -5 -1 -22 28 -38 65 -54 124 -91 156 -131 112 -18 -20 -17 -22
18 -93 51 -102 73 -161 107 -291 45 -167 59 -294 57 -503 -2 -173 -3 -183 -25
-205 -12 -14 -22 -34 -22 -46 0 -34 27 -42 115 -30 92 11 241 6 256 -9 7 -7 1
-18 -20 -36 -33 -27 -126 -44 -179 -32 -54 12 -82 -44 -41 -81 12 -10 32 -38
46 -62 20 -34 23 -45 13 -57 -17 -21 -70 -19 -135 6 -86 32 -89 30 -160 -109
-65 -125 -105 -187 -181 -278 l-43 -51 -151 -6 -151 -7 -60 41 c-72 49 -156
89 -186 89 -12 0 -27 -9 -34 -21 -9 -17 -6 -30 14 -68 l24 -48 -166 -6 c-91
-4 -348 -10 -571 -13 l-405 -7 0 45 c0 42 2 46 30 54 l30 9 -3 80 c-2 77 -24
232 -43 306 l-9 36 -172 13 c-138 10 -205 10 -328 1 -85 -7 -158 -15 -161 -19
-13 -14 -52 -338 -45 -375 11 -61 26 -66 257 -73 196 -7 206 -8 215 -28 13
-29 58 -33 76 -7 17 24 28 18 28 -14 0 -21 -5 -22 -132 -28 -145 -7 -1396 8
-1546 19 l-92 6 -38 47 c-57 68 -115 157 -154 236 -38 74 -93 233 -104 300
-11 68 -18 75 -79 75 -29 0 -61 3 -70 6 -13 5 -45 53 -45 68 0 8 63 26 95 26
42 0 68 20 63 50 -4 27 -7 29 -108 70 -73 30 -138 75 -126 87 7 8 127 6 175
-2 49 -8 60 6 67 86 26 291 129 643 270 920 57 112 60 135 17 145 -33 9 -51
-10 -98 -105 -22 -45 -43 -81 -46 -81 -9 0 -107 298 -133 410 -57 233 -79 437
-79 715 0 247 24 351 100 432 44 46 97 58 258 57 288 -2 657 -91 927 -224 81
-40 198 -111 198 -120 0 -4 -15 -11 -34 -18 -51 -19 -72 -46 -58 -77 15 -33
46 -32 124 4 98 46 187 78 295 105 l98 25 23 -29 c24 -31 59 -39 80 -18 21 21
13 44 -29 98 -48 61 -89 144 -89 182 0 15 5 39 11 55 10 28 47 73 59 73 4 0
16 -10 27 -22z m199 -3134 l51 -6 16 -112 c10 -61 18 -129 20 -151 l2 -40 -45
-7 c-59 -9 -338 -10 -473 -1 -100 6 -107 7 -107 27 0 39 32 264 40 276 4 6 32
16 61 20 55 9 341 5 435 -6z m1704 -512 c0 -5 -13 -20 -28 -35 l-28 -27 -28
29 c-25 26 -26 30 -9 34 31 8 93 7 93 -1z m-2660 -32 c398 -6 726 -13 728 -15
2 -2 -2 -100 -8 -218 -7 -118 -11 -274 -8 -346 l5 -132 -71 3 -71 3 -7 65 c-4
36 -9 137 -11 225 -2 89 -7 166 -11 173 -5 8 -41 12 -114 12 -122 0 -389 15
-537 31 -191 19 -457 69 -495 91 -113 68 -197 141 -142 124 9 -3 343 -10 742
-16z m2114 -6 c4 -15 18 -43 32 -63 30 -44 30 -45 2 -102 l-23 -47 -225 -7
c-124 -4 -370 -5 -547 -2 -282 6 -324 4 -338 -9 -21 -22 -23 -38 -29 -244 -3
-102 -8 -195 -12 -207 -6 -21 -12 -23 -84 -23 l-78 0 -5 128 c-6 169 12 565
27 574 6 4 166 8 356 9 288 1 662 9 871 17 43 2 47 0 53 -24z m797 -345 c93
-93 130 -260 95 -426 -30 -139 -72 -218 -171 -316 -71 -70 -163 -127 -274
-167 -84 -31 -280 -70 -350 -70 -35 0 -37 2 -61 62 -14 35 -26 66 -28 70 -2 3
28 9 65 13 37 4 118 20 180 36 287 73 437 209 462 418 9 75 -1 193 -24 266
-19 65 -19 114 2 137 26 29 59 22 104 -23z m-2811 -124 c30 -8 67 -17 83 -20
15 -3 27 -12 27 -21 0 -8 -16 -106 -35 -218 -19 -112 -35 -207 -35 -210 0 -4
-4 -4 -10 -1 -23 14 -96 294 -116 444 -7 51 -6 54 12 47 10 -4 44 -14 74 -21z
m1633 -82 c-20 -54 -54 -153 -77 -220 -22 -67 -44 -122 -47 -123 -10 0 -47
145 -64 255 -9 55 -19 110 -22 123 -5 19 -1 22 28 23 19 0 68 9 109 19 119 28
113 34 73 -77z m-1385 25 c21 -21 14 -38 -16 -38 -35 0 -41 6 -35 31 6 21 33
25 51 7z m1902 -307 c0 -146 -4 -242 -10 -246 -18 -11 -164 -23 -180 -15 -8 4
-35 46 -59 92 -24 45 -80 140 -123 210 -78 124 -79 128 -68 163 l12 35 214 0
214 0 0 -239z m-2260 11 c0 -13 -12 -22 -22 -16 -10 6 -1 24 13 24 5 0 9 -4 9
-8z m370 -60 c0 -27 -3 -90 -6 -140 l-7 -92 -68 0 c-49 0 -69 4 -69 13 0 6 9
66 20 132 11 66 20 123 20 128 0 4 25 7 55 7 l55 0 0 -48z m1487 -54 c62 -105
93 -163 93 -173 0 -3 -45 -5 -100 -5 l-100 0 -1 -52 -1 -53 -13 31 c-25 57
-29 84 -11 84 14 0 16 18 16 135 l0 135 28 0 c25 0 35 -11 89 -102z m-1026
-48 c50 -14 73 -50 66 -107 -6 -60 -29 -83 -83 -83 -49 0 -98 34 -108 75 -9
34 19 92 53 110 32 17 28 17 72 5z m-836 -120 l105 0 -1 -27 c0 -16 -15 -77
-33 -138 l-33 -110 -71 -3 -71 -3 -3 -62 -3 -62 -54 65 -54 65 56 3 57 3 0
129 0 130 -35 0 c-19 0 -35 2 -35 5 0 3 15 34 33 68 l32 62 3 -62 3 -63 104 0z"/>
<path d="M2053 4188 c-6 -7 -20 -39 -33 -70 -22 -53 -26 -57 -49 -52 -98 22
-195 48 -249 66 -58 18 -66 19 -79 5 -39 -38 3 -61 194 -109 70 -17 129 -32
130 -33 2 -1 -7 -25 -19 -53 -21 -49 -21 -53 -5 -69 24 -24 44 -10 70 52 11
28 22 52 23 54 2 2 52 -4 113 -13 60 -9 114 -16 119 -16 5 0 3 -27 -5 -62 -13
-55 -12 -63 2 -77 25 -26 48 -2 64 68 l15 62 63 -5 c35 -3 93 -9 129 -12 l65
-6 -3 -70 c-2 -58 0 -72 14 -82 28 -17 46 11 55 84 8 63 9 65 36 64 15 0 70
-1 122 -2 l95 -2 0 -63 c0 -74 18 -109 47 -91 14 9 19 26 21 83 l3 71 78 0
c43 0 99 3 124 6 l46 7 7 -62 c8 -74 25 -101 51 -85 15 10 17 22 15 77 l-4 65
109 7 c59 3 120 8 135 11 23 5 28 1 34 -23 23 -103 32 -128 47 -137 13 -8 21
-7 33 6 15 14 15 22 1 84 -17 75 -14 84 34 84 14 0 60 3 101 6 l74 7 21 -69
c23 -77 43 -98 69 -72 15 15 15 21 -4 82 -11 37 -17 68 -13 70 3 2 38 7 76 11
39 3 79 9 90 11 17 4 26 -7 53 -61 35 -71 55 -87 79 -62 15 15 14 21 -10 74
-14 32 -23 59 -19 61 5 1 41 8 82 15 82 14 107 34 78 63 -15 15 -25 16 -87 6
-111 -19 -114 -18 -139 33 -25 52 -47 65 -70 42 -15 -15 -15 -19 1 -52 9 -20
17 -40 17 -44 0 -5 -26 -12 -57 -15 -32 -4 -72 -10 -90 -13 -31 -5 -32 -3 -46
43 -16 57 -39 76 -63 53 -13 -14 -14 -23 -4 -59 6 -23 10 -43 8 -45 -7 -7
-201 -25 -207 -20 -3 4 -11 25 -16 47 -13 51 -38 70 -61 46 -14 -14 -15 -23
-6 -57 5 -23 7 -43 3 -45 -3 -2 -62 -7 -130 -11 -136 -8 -141 -7 -141 51 0 44
-23 72 -47 58 -15 -10 -17 -22 -15 -68 l3 -56 -120 0 -121 0 0 53 c0 64 -19
98 -47 81 -14 -8 -19 -26 -21 -73 l-3 -61 -121 0 -121 0 7 68 c6 57 4 71 -9
82 -30 25 -49 0 -59 -75 l-9 -67 -96 6 c-53 4 -108 9 -122 12 l-27 5 16 60
c14 55 13 62 -2 77 -26 27 -49 3 -65 -67 -14 -59 -16 -61 -45 -60 -43 0 -184
24 -192 32 -3 3 4 31 16 61 19 46 21 58 10 71 -15 18 -34 19 -47 3z"/>
<path d="M1527 3322 c-10 -10 -17 -26 -17 -34 0 -13 170 -207 356 -409 l24
-25 -215 -222 c-123 -127 -215 -230 -215 -240 0 -31 37 -57 63 -46 13 5 115
105 228 222 l204 213 35 -38 c19 -21 104 -114 188 -206 89 -97 160 -167 171
-167 21 0 51 30 51 52 0 9 -83 107 -185 219 -102 112 -185 207 -185 210 0 3
88 97 195 208 107 111 195 210 195 220 0 21 -30 51 -52 51 -9 0 -105 -91 -213
-202 l-197 -203 -41 45 c-23 25 -109 118 -190 208 -87 95 -155 162 -166 162
-10 0 -25 -8 -34 -18z"/>
<path d="M3557 3292 c-9 -10 -17 -26 -17 -34 0 -9 83 -107 185 -219 102 -112
185 -206 185 -209 0 -3 -97 -106 -215 -228 -118 -123 -215 -231 -215 -241 0
-22 30 -51 53 -51 8 0 111 99 229 220 117 121 216 220 219 220 3 0 62 -62 130
-137 189 -210 251 -273 269 -273 21 0 50 31 50 53 0 14 -140 174 -352 403
l-29 31 196 202 c107 111 195 210 195 220 0 21 -30 51 -52 51 -9 0 -104 -90
-210 -200 l-195 -200 -184 203 c-104 114 -193 203 -205 205 -11 2 -28 -6 -37
-16z"/>
<path d="M2856 2428 c-9 -12 -16 -30 -16 -39 0 -27 49 -79 75 -79 33 0 72 35
80 72 10 43 -20 68 -81 68 -33 0 -46 -5 -58 -22z"/>
<path d="M3220 1410 c-11 -11 -20 -24 -20 -30 0 -5 9 -19 20 -30 11 -11 25
-20 30 -20 6 0 19 9 30 20 11 11 20 25 20 30 0 6 -9 19 -20 30 -11 11 -24 20
-30 20 -5 0 -19 -9 -30 -20z"/>
<path d="M3450 290 l0 -130 130 0 130 0 0 130 0 130 -130 0 -130 0 0 -130z"/>
</g>
</svg>
